# xmcd CD database file
#
# Track frame offsets:
#	150
#	13131
#	26638
#	41060
#	48798
#	65620
#	85925
#	102501
#	123147
#	136627
#	152613
#	165926
#	180624
#	206071
#
# Disc length: 3008 seconds
#
# Revision: 1
# Processed by: cddbd v1.5.2PL0 Copyright (c) Steve Scherf et al.
# Submitted via: CDValet v3.40 - Copyright (c) 1996 - 1998 Greg Leichner
#
DISCID=af0bbe0e
DTITLE=Haggard, Merle - Live From Austin TX '78
DYEAR=1900
DGENRE=
TTITLE0=Working Man Can't Get Nowhere Today
TTITLE1=Silver Wings
TTITLE2=Ramblin' Fever
TTITLE3=Lonesome Fugitive
TTITLE4=Sing Me Back Home
TTITLE5=Orange Blossom Special
TTITLE6=Old-Fashioned Love
TTITLE7=Long Black Limousine
TTITLE8=Cherokee Maiden
TTITLE9=San Antonio Rose
TTITLE10=Misery
TTITLE11=Farmer's Daughter
TTITLE12=Brain Cloudy Blues
TTITLE13=Workin' Man Blues
EXTD=
EXTT0=
EXTT1=
EXTT2=
EXTT3=
EXTT4=
EXTT5=
EXTT6=
EXTT7=
EXTT8=
EXTT9=
EXTT10=
EXTT11=
EXTT12=
EXTT13=
PLAYORDER=
